<?xml version="1.0" encoding="UTF-8"?>
<svg id="Layer_2" data-name="Layer 2" xmlns="http://www.w3.org/2000/svg" xmlns:xlink="http://www.w3.org/1999/xlink" viewBox="0 0 826.62 922.76">
  <defs>
    <style>
      .cls-1 {
        fill: url(#linear-gradient);
        stroke-width: 0px;
      }
    </style>
    <linearGradient id="linear-gradient" x1="202.17" y1="871.12" x2="610.52" y2="29.45" gradientTransform="translate(.14 -.21) rotate(.02)" gradientUnits="userSpaceOnUse">
      <stop offset="0" stop-color="#fdbdd6"/>
      <stop offset=".31" stop-color="#ee8efc"/>
      <stop offset=".58" stop-color="#725dfd"/>
      <stop offset="1" stop-color="#06ffb8"/>
    </linearGradient>
  </defs>
  <g id="Layer_2-2" data-name="Layer 2">
    <path class="cls-1" d="M684.72,22.45c-72.71-61.34-124.01,17.96-141.02,59.96s-41.04,153.99-64.04,144.98c-23-9.01-17.99-41.01-7.98-83,10.01-42-9.98-77-47.98-61.01-38,15.99-10.03,90-22.05,157.99s-5.03,111-22.03,112.99-54.99-32.02-60.98-60.02c-5.99-28-21.98-74.01-55.98-54.02-34.01,19.99-27.21,72.16-6.13,114.08,21.08,41.92,133.04,198.95,37.03,222.93-96.01,23.97-107.96-141.03-108.94-202.03s-8.97-122-47.97-121.01-23.01,33.99-16.01,48c7,14,1.99,23-7.01,23s-33-12.01-42.99-31.01-20.99-38.01-40-17.01-5.01,42,15.98,73,58.98,54.02,75.97,99.02c16.99,45,31.98,87.01,10.97,98-21,10.99-56-.02-77-17.02s-35.99-25.01-54-.02c-18.01,24.99,61.98,77.02,131.97,104.04,69.99,27.02,73.98,70.02,66.96,128.02-7.02,58,13.95,168,115.95,160.03s156.03-110.96,177.06-209.95,54.04-134.98,129.04-136.96c75-1.98,206,15.06,203.01-51.94s-92.48-58.53-137.48-54.54c-45,3.99-77.01,20.98-133.01,18.96s-59-7.02-57.99-29.02,29.01-32.99,62.01-37.98,82-5.98,76.01-51.98-45.99-34.01-75.99-30.02c-30,3.99-43-9.01-26.99-42.01s81.03-106.98,125.04-148.96c44.01-41.99,77.52-82.48,26.54-125.49Z"/>
  </g>
</svg>